# This file uses centimeters as units for non-parametric coordinates.

mtllib log_1.mtl
g default
v -5.731308 3.227319 28.430838
v 3.511013 0.819556 28.430838
v -3.092651 8.489027 28.430838
v 3.511013 6.120555 28.430838
v -0.767460 8.511096 0.000000
v 3.389538 3.660483 0.000000
v -5.226921 5.537609 0.000000
v 1.000000 -0.533523 0.000000
v -3.437645 1.143881 0.000000
v -1.635307 0.007581 28.430838
v -2.574028 8.661301 17.524851
v -5.786930 3.776995 17.524851
v -2.119877 0.126063 17.524851
v 2.847416 0.518641 17.061861
v 3.430412 5.478470 17.061861
v -1.364632 8.217024 5.354696
v -5.086613 4.851094 5.354696
v -2.826454 1.027457 5.354696
v 1.513657 0.083011 5.354696
v 3.151081 4.295216 5.354696
vt 0.721266 0.754562
vt 0.860896 0.754562
vt 0.784687 0.998008
vt 0.923282 0.928505
vt 0.699878 0.890118
vt 0.072811 0.001992
vt 0.246754 0.001992
vt 0.086472 0.289259
vt 0.244631 0.301455
vt 0.001843 0.289259
vt 0.118328 0.609825
vt 0.020289 0.609825
vt 0.237273 0.609825
vt 0.134057 0.750870
vt 0.016594 0.750870
vt 0.243554 0.750870
vt 0.584705 0.754562
vt 0.694202 0.882329
vt 0.467242 0.832885
vt 0.631261 0.992801
vt 0.514372 0.948617
vt 0.280358 0.451407
vt 0.411002 0.451407
vt 0.288284 0.750870
vt 0.379834 0.143036
vt 0.427914 0.750870
vt 0.268883 0.143036
vt 0.363115 0.001992
vt 0.252644 0.001992
vt 0.519558 0.001992
vt 0.658153 0.001992
vt 0.534037 0.289259
vt 0.437870 0.289259
vt 0.461613 0.609825
vt 0.434749 0.001992
vt 0.562329 0.609825
vt 0.464680 0.750870
vt 0.580412 0.750870
vt 0.848566 0.750870
vt 0.713010 0.750870
vt 0.831087 0.451407
vt 0.700247 0.463602
vt 0.795955 0.143036
vt 0.681635 0.143036
vt 0.782425 0.001992
vt 0.665536 0.001992
vn -0.000001 0.000000 1.000000
vn -0.000001 0.000000 1.000000
vn -0.000001 0.000000 1.000000
vn 0.000000 0.000000 1.000000
vn 0.000000 0.000000 1.000000
vn 0.000000 0.000000 1.000000
vn 0.337441 0.940839 0.030908
vn 0.337441 0.940839 0.030908
vn 0.337441 0.940839 0.030908
vn 0.464478 0.883984 -0.053218
vn 0.464478 0.883984 -0.053218
vn 0.464478 0.883984 -0.053218
vn 0.000000 0.000000 -1.000000
vn 0.000000 0.000000 -1.000000
vn 0.000000 0.000000 -1.000000
vn 0.000000 0.000000 -1.000000
vn 0.000000 0.000000 -1.000000
vn 0.000000 0.000000 -1.000000
vn 0.991670 -0.116565 -0.054798
vn 0.991670 -0.116565 -0.054798
vn 0.991670 -0.116565 -0.054798
vn 0.999975 0.000000 -0.007089
vn 0.999975 0.000000 -0.007089
vn 0.999975 0.000000 -0.007089
vn -0.893567 0.448108 0.027143
vn -0.893567 0.448108 0.027143
vn -0.893567 0.448108 0.027143
vn -0.835050 0.549298 -0.031033
vn -0.835050 0.549298 -0.031033
vn -0.835050 0.549298 -0.031033
vn -0.000002 0.000000 -1.000000
vn -0.000002 0.000000 -1.000000
vn -0.000002 0.000000 -1.000000
vn 0.155827 -0.987637 0.017045
vn 0.155827 -0.987637 0.017045
vn 0.155827 -0.987637 0.017045
vn 0.077457 -0.996894 -0.014272
vn 0.077457 -0.996894 -0.014272
vn 0.077457 -0.996894 -0.014272
vn 0.000000 0.000000 1.000000
vn 0.000000 0.000000 1.000000
vn 0.000000 0.000000 1.000000
vn -0.705184 -0.708297 -0.032103
vn -0.705184 -0.708297 -0.032103
vn -0.705184 -0.708297 -0.032103
vn -0.617882 -0.786043 0.018914
vn -0.617882 -0.786043 0.018914
vn -0.617882 -0.786043 0.018914
vn -0.835453 0.549563 0.000427
vn -0.835452 0.549563 0.000427
vn -0.835452 0.549563 0.000427
vn -0.667814 0.738455 -0.093321
vn -0.667814 0.738455 -0.093321
vn -0.667814 0.738455 -0.093321
vn -0.705501 -0.708616 -0.011524
vn -0.705500 -0.708616 -0.011524
vn -0.705500 -0.708616 -0.011524
vn -0.857040 -0.506598 -0.094028
vn -0.857040 -0.506598 -0.094028
vn -0.857040 -0.506598 -0.094028
vn 0.081332 -0.996299 0.027807
vn 0.081332 -0.996299 0.027807
vn 0.081332 -0.996299 0.027807
vn -0.212251 -0.975376 -0.059919
vn -0.212251 -0.975377 -0.059919
vn -0.212251 -0.975376 -0.059919
vn 0.993092 -0.116731 -0.011897
vn 0.993092 -0.116731 -0.011897
vn 0.993092 -0.116731 -0.011897
vn 0.928074 -0.360773 -0.092308
vn 0.928074 -0.360773 -0.092308
vn 0.928074 -0.360773 -0.092308
vn 0.469166 0.882993 0.014389
vn 0.469166 0.882993 0.014389
vn 0.469166 0.882993 0.014389
vn 0.652958 0.751839 -0.091569
vn 0.652958 0.751839 -0.091569
vn 0.652958 0.751839 -0.091569
vn -0.666524 0.737028 0.111958
vn -0.666524 0.737028 0.111958
vn -0.666524 0.737028 0.111958
vn -0.554694 0.831898 -0.016175
vn -0.554694 0.831897 -0.016175
vn -0.554694 0.831898 -0.016175
vn -0.857600 -0.506928 0.086866
vn -0.857600 -0.506928 0.086866
vn -0.857600 -0.506928 0.086866
vn -0.925880 -0.377050 -0.024080
vn -0.925880 -0.377050 -0.024080
vn -0.925880 -0.377050 -0.024080
vn -0.210780 -0.968615 0.131745
vn -0.210780 -0.968615 0.131745
vn -0.210780 -0.968615 0.131745
vn -0.353507 -0.935218 0.020016
vn -0.353507 -0.935218 0.020016
vn -0.353507 -0.935218 0.020016
vn 0.928747 -0.361036 0.084155
vn 0.928747 -0.361036 0.084155
vn 0.928747 -0.361036 0.084155
vn 0.868569 -0.494867 -0.026340
vn 0.868569 -0.494867 -0.026340
vn 0.868569 -0.494867 -0.026340
vn 0.651449 0.750102 0.113846
vn 0.651449 0.750102 0.113846
vn 0.651449 0.750102 0.113846
vn 0.758597 0.650122 -0.043282
vn 0.758597 0.650122 -0.043282
vn 0.758597 0.650122 -0.043282
s off
g polySurface83 polySurface74
usemtl initialShadingGroup
f 2/1/1 4/2/2 1/3/3
f 1/3/4 4/2/5 3/4/6
f 3/6/7 4/7/8 11/8/9
f 11/8/10 4/7/11 15/9/12
f 5/17/13 6/18/14 7/19/15
f 7/19/16 6/18/17 8/20/18
f 14/22/19 15/23/20 2/24/21
f 2/24/22 15/23/23 4/26/24
f 1/30/25 3/31/26 12/32/27
f 12/10/28 3/6/29 11/8/30
f 7/19/31 8/20/32 9/21/33
f 2/39/34 10/40/35 14/41/36
f 14/41/37 10/40/38 13/42/39
f 2/1/40 1/3/41 10/5/42
f 12/32/43 13/33/44 1/30/45
f 1/30/46 13/33/47 10/35/48
f 12/10/49 11/8/50 17/12/51
f 17/12/52 11/8/53 16/11/54
f 13/33/55 12/32/56 18/34/57
f 18/34/58 12/32/59 17/36/60
f 14/41/61 13/42/62 19/43/63
f 19/43/64 13/42/65 18/44/66
f 15/23/67 14/22/68 20/25/69
f 20/25/70 14/22/71 19/27/72
f 11/8/73 15/9/74 16/11/75
f 16/11/76 15/9/77 20/13/78
f 17/12/79 16/11/80 7/15/81
f 7/15/82 16/11/83 5/14/84
f 18/34/85 17/36/86 9/37/87
f 9/37/88 17/36/89 7/38/90
f 19/43/91 18/44/92 8/45/93
f 8/45/94 18/44/95 9/46/96
f 20/25/97 19/27/98 6/28/99
f 6/28/100 19/27/101 8/29/102
f 16/11/103 20/13/104 5/14/105
f 5/14/106 20/13/107 6/16/108
