# This file uses centimeters as units for non-parametric coordinates.

mtllib log_2.mtl
g default
v -4.839653 3.900342 28.422125
v -1.738091 0.316658 28.430838
v -2.380802 5.502962 28.430838
v -0.265678 2.733812 28.430838
v -1.398285 4.918257 0.000000
v -1.000000 1.643139 0.000000
v -4.096809 4.703103 0.000000
v -3.168339 0.341980 0.000000
v -4.565868 2.241962 0.000000
v -4.124653 1.262806 28.430838
v -2.115173 5.448855 17.524851
v -4.820995 4.043543 17.524851
v -4.295223 1.440781 17.524851
v -2.100327 0.349190 17.061861
v -0.477871 2.461651 17.061861
v -1.730728 4.936919 5.354696
v -4.228580 4.354176 5.354696
v -4.341557 2.032536 5.354696
v -2.781399 0.491717 5.354696
v -0.923828 1.993560 5.354696
v -3.038769 4.787460 -0.000002
v -3.249222 4.582658 5.354696
v -3.760098 4.594538 17.524851
v -3.961475 4.934174 28.430838
v -4.041195 4.436152 28.422121
v -2.965420 3.769755 28.814478
v -1.340809 4.141385 28.430838
v -1.310120 3.980062 17.297201
v -1.333981 3.489684 5.354696
v -1.202450 3.307898 0.000000
v -2.684460 2.852483 -0.000002
v -3.640285 2.558761 0.000000
v -3.155590 3.622981 20.109461
vt 0.667885 0.163757
vt 0.702780 0.122964
vt 0.723261 0.183684
vt 0.759695 0.135984
vt 0.797360 0.086672
vt 0.745777 0.001992
vt 0.662169 0.035138
vt 0.637120 0.127539
vt 0.665092 0.146310
vt 0.309592 0.615939
vt 0.263787 0.998008
vt 0.258135 0.607964
vt 0.311487 0.998008
vt 0.214476 0.998008
vt 0.291657 0.189583
vt 0.204941 0.599719
vt 0.240956 0.189583
vt 0.129796 0.998008
vt 0.291003 0.001992
vt 0.130935 0.599719
vt 0.188542 0.189583
vt 0.234588 0.001992
vt 0.135928 0.189583
vt 0.176266 0.001992
vt 0.130683 0.001992
vt 0.914729 0.001992
vt 0.921590 0.058407
vt 0.857258 0.006574
vt 0.869671 0.074362
vt 0.928682 0.116729
vt 0.836185 0.084652
vt 0.852719 0.162313
vt 0.820192 0.009529
vt 0.803760 0.095751
vt 0.032619 0.001992
vt 0.087994 0.001992
vt 0.039674 0.384061
vt 0.097300 0.384061
vt 0.057571 0.810417
vt 0.110768 0.810417
vt 0.023261 0.810417
vt 0.064944 0.998008
vt 0.002507 0.384061
vt 0.027878 0.998008
vt 0.122415 0.998008
vt 0.029826 0.002297
vt 0.001854 0.002297
vt 0.405029 0.599719
vt 0.417719 0.998008
vt 0.328135 0.615939
vt 0.334111 0.998008
vt 0.326512 0.189583
vt 0.381169 0.189583
vt 0.367613 0.001992
vt 0.318654 0.001992
vt 0.521609 0.384061
vt 0.430427 0.384061
vt 0.516593 0.002297
vt 0.451158 0.810417
vt 0.424192 0.001992
vt 0.532492 0.810417
vt 0.458495 0.998008
vt 0.544716 0.998008
vt 0.586844 0.397501
vt 0.551949 0.384061
vt 0.580181 0.092539
vt 0.559004 0.001992
vt 0.602530 0.397501
vt 0.592683 0.015737
vt 0.623708 0.306954
vt 0.630370 0.001992
vn -0.087567 0.243354 0.965977
vn -0.087567 0.243354 0.965977
vn -0.087567 0.243354 0.965977
vn 0.194887 0.148854 0.969465
vn 0.194887 0.148854 0.969465
vn 0.194887 0.148854 0.969465
vn 0.794593 0.606923 0.016342
vn 0.794593 0.606923 0.016342
vn 0.794593 0.606923 0.016342
vn 0.876610 0.481180 -0.004556
vn 0.876610 0.481180 -0.004556
vn 0.876610 0.481180 -0.004556
vn 0.000003 0.000000 -1.000000
vn 0.000003 0.000000 -1.000000
vn 0.000003 0.000000 -1.000000
vn 0.000000 0.000000 -1.000000
vn 0.000000 0.000000 -1.000000
vn 0.000000 0.000000 -1.000000
vn 0.854021 -0.520227 -0.003486
vn 0.854021 -0.520227 -0.003486
vn 0.854021 -0.520227 -0.003486
vn 0.792792 -0.608894 -0.027002
vn 0.792792 -0.608894 -0.027002
vn 0.792792 -0.608894 -0.027002
vn -0.338372 0.940341 -0.035532
vn -0.338372 0.940341 -0.035532
vn -0.338372 0.940341 -0.035532
vn -0.460854 0.887339 -0.015627
vn -0.460854 0.887339 -0.015627
vn -0.460854 0.887339 -0.015627
vn 0.000000 0.000000 -1.000000
vn 0.000000 0.000000 -1.000000
vn 0.000000 0.000000 -1.000000
vn 0.000000 0.000000 -1.000000
vn 0.000000 0.000000 -1.000000
vn 0.000000 0.000000 -1.000000
vn -0.443314 -0.896292 0.011560
vn -0.443314 -0.896292 0.011560
vn -0.443314 -0.896292 0.011560
vn -0.368526 -0.929570 -0.009406
vn -0.368526 -0.929570 -0.009406
vn -0.368526 -0.929570 -0.009406
vn -0.980192 -0.198004 -0.004280
vn -0.980192 -0.198004 -0.004280
vn -0.980192 -0.198004 -0.004280
vn -0.965117 -0.261596 0.010826
vn -0.965117 -0.261596 0.010826
vn -0.965117 -0.261596 0.010826
vn -0.460816 0.887265 -0.020210
vn -0.460816 0.887265 -0.020210
vn -0.460816 0.887265 -0.020210
vn -0.226933 0.972722 -0.048086
vn -0.226933 0.972722 -0.048086
vn -0.226933 0.972722 -0.048086
vn -0.980184 -0.198001 -0.005896
vn -0.980184 -0.198001 -0.005896
vn -0.980184 -0.198001 -0.005896
vn -0.997699 0.048548 -0.047326
vn -0.997699 0.048548 -0.047326
vn -0.997699 0.048548 -0.047326
vn -0.702317 -0.711136 0.032200
vn -0.702317 -0.711136 0.032200
vn -0.702317 -0.711136 0.032200
vn -0.451939 -0.891078 -0.041607
vn -0.451939 -0.891078 -0.041607
vn -0.451939 -0.891078 -0.041607
vn 0.793066 -0.609108 -0.005856
vn 0.793066 -0.609108 -0.005856
vn 0.793066 -0.609108 -0.005856
vn 0.628052 -0.776811 -0.045995
vn 0.628052 -0.776811 -0.045995
vn 0.628052 -0.776811 -0.045995
vn 0.877382 0.479734 0.007536
vn 0.877381 0.479734 0.007536
vn 0.877382 0.479734 0.007536
vn 0.964338 0.264365 -0.012782
vn 0.964338 0.264365 -0.012782
vn 0.964338 0.264365 -0.012782
vn -0.227106 0.973459 0.028306
vn -0.227106 0.973459 0.028306
vn -0.227106 0.973459 0.028306
vn -0.079476 0.996801 -0.008408
vn -0.079476 0.996801 -0.008408
vn -0.079476 0.996801 -0.008408
vn -0.997864 0.048556 0.043700
vn -0.997864 0.048556 0.043700
vn -0.997864 0.048556 0.043700
vn -0.982248 0.187206 -0.011973
vn -0.982248 0.187206 -0.011973
vn -0.982248 0.187206 -0.011973
vn -0.700936 -0.709732 0.070498
vn -0.700936 -0.709732 0.070498
vn -0.700936 -0.709732 0.070498
vn -0.805508 -0.592490 0.010571
vn -0.805508 -0.592490 0.010571
vn -0.805508 -0.592490 0.010571
vn 0.514496 -0.857391 -0.013203
vn 0.514496 -0.857391 -0.013203
vn 0.514496 -0.857391 -0.013203
vn 0.628165 -0.776951 0.041909
vn 0.628165 -0.776951 0.041909
vn 0.628165 -0.776951 0.041909
vn 0.962745 0.263931 0.058852
vn 0.962745 0.263931 0.058852
vn 0.962745 0.263931 0.058852
vn 0.992483 0.120693 0.020282
vn 0.992483 0.120693 0.020282
vn 0.992483 0.120693 0.020282
vn -0.764085 -0.644526 0.027560
vn -0.764086 -0.644526 0.027560
vn -0.764085 -0.644526 0.027560
vn -0.849917 -0.526917 0.000716
vn -0.849917 -0.526917 0.000716
vn -0.849917 -0.526917 0.000716
vn -0.226819 0.972222 0.057772
vn -0.226819 0.972222 0.057772
vn -0.226819 0.972222 0.057772
vn -0.079429 0.996227 0.034981
vn -0.079429 0.996227 0.034981
vn -0.079429 0.996227 0.034981
vn -0.460908 0.887448 0.000215
vn -0.460908 0.887448 0.000215
vn -0.460908 0.887448 0.000215
vn -0.227184 0.973795 -0.010487
vn -0.227184 0.973795 -0.010487
vn -0.227184 0.973795 -0.010487
vn -0.557186 0.830328 0.009957
vn -0.557186 0.830328 0.009957
vn -0.557186 0.830328 0.009957
vn -0.460913 0.887445 0.001009
vn -0.460913 0.887445 0.001009
vn -0.460913 0.887445 0.001009
vn -0.208156 -0.053203 0.976648
vn -0.208156 -0.053203 0.976648
vn -0.208156 -0.053203 0.976648
vn -0.179537 0.267550 0.946670
vn -0.179537 0.267550 0.946670
vn -0.179537 0.267550 0.946670
vn -0.000004 -0.000000 -1.000000
vn -0.000004 -0.000000 -1.000000
vn -0.000004 -0.000000 -1.000000
vn -0.000003 -0.000000 -1.000000
vn -0.000003 -0.000000 -1.000000
vn -0.000003 -0.000000 -1.000000
vn 0.194879 0.148855 0.969466
vn 0.194879 0.148855 0.969466
vn 0.194879 0.148855 0.969466
vn 0.114149 -0.069533 0.991027
vn 0.114149 -0.069533 0.991027
vn 0.114149 -0.069533 0.991027
vn 0.794680 0.606993 -0.006605
vn 0.794680 0.606993 -0.006605
vn 0.794680 0.606993 -0.006605
vn 0.874747 0.483776 -0.027908
vn 0.874747 0.483776 -0.027908
vn 0.874747 0.483776 -0.027908
vn 0.875299 0.483099 -0.021586
vn 0.875300 0.483099 -0.021586
vn 0.875300 0.483099 -0.021586
vn 0.963338 0.264095 -0.047255
vn 0.963338 0.264095 -0.047255
vn 0.963338 0.264095 -0.047255
vn 0.964312 0.264362 0.014712
vn 0.964312 0.264362 0.014712
vn 0.964311 0.264361 0.014712
vn 0.992446 0.120689 -0.022016
vn 0.992446 0.120689 -0.022016
vn 0.992446 0.120689 -0.022016
vn 0.000002 0.000000 -1.000000
vn 0.000002 0.000000 -1.000000
vn 0.000002 0.000000 -1.000000
vn 0.000003 -0.000001 -1.000000
vn 0.000003 -0.000001 -1.000000
vn 0.000003 -0.000001 -1.000000
vn -0.000007 -0.000000 -1.000000
vn -0.000007 -0.000000 -1.000000
vn -0.000007 -0.000000 -1.000000
vn -0.050780 -0.128090 0.990462
vn -0.050780 -0.128090 0.990462
vn -0.050780 -0.128090 0.990462
vn 0.811716 0.583311 0.029416
vn 0.811716 0.583311 0.029416
vn 0.811716 0.583311 0.029416
vn 0.533240 0.845567 -0.025906
vn 0.533240 0.845567 -0.025906
vn 0.533240 0.845567 -0.025906
s off
g polySurface82 polySurface74
usemtl initialShadingGroup
f 24/1/1 26/2/2 3/3/3
f 3/3/4 26/2/5 27/4/6
f 3/13/7 27/11/8 11/10/9
f 11/10/10 27/11/11 28/12/12
f 5/26/13 30/27/14 21/28/15
f 21/28/16 30/27/17 31/29/18
f 4/14/19 2/18/20 15/16/21
f 15/16/22 2/18/23 14/20/24
f 24/35/25 3/36/26 23/37/27
f 23/37/28 3/36/29 11/38/30
f 7/33/31 32/31/32 9/34/33
f 9/34/34 32/31/35 8/32/36
f 14/48/37 2/49/38 13/50/39
f 13/50/40 2/49/41 10/51/42
f 12/56/43 13/57/44 1/58/45
f 1/58/46 13/57/47 10/60/48
f 23/37/49 11/38/50 22/39/51
f 22/39/52 11/38/53 16/40/54
f 13/57/55 12/56/56 18/59/57
f 18/59/58 12/56/59 17/61/60
f 19/53/61 14/48/62 18/52/63
f 18/52/64 14/48/65 13/50/66
f 15/16/67 14/20/68 20/21/69
f 20/21/70 14/20/71 19/23/72
f 11/10/73 28/12/74 16/15/75
f 16/15/76 28/12/77 29/17/78
f 22/39/79 16/40/80 21/42/81
f 21/42/82 16/40/83 5/45/84
f 18/59/85 17/61/86 9/62/87
f 9/62/88 17/61/89 7/63/90
f 19/53/91 18/52/92 8/54/93
f 8/54/94 18/52/95 9/55/96
f 8/25/97 6/24/98 19/23/99
f 19/23/100 6/24/101 20/21/102
f 16/15/103 29/17/104 5/19/105
f 5/19/106 29/17/107 30/22/108
f 26/64/109 24/65/110 33/66/111
f 33/66/112 24/65/113 23/67/114
f 17/41/115 22/39/116 7/44/117
f 7/44/118 22/39/119 21/42/120
f 12/43/121 23/37/122 17/41/123
f 17/41/124 23/37/125 22/39/126
f 1/47/127 25/46/128 12/43/129
f 12/43/130 25/46/131 23/37/132
f 10/7/133 26/2/134 1/8/135
f 1/8/136 26/2/137 25/9/138
f 31/29/139 32/31/140 21/28/141
f 21/28/142 32/31/143 7/33/144
f 27/4/145 26/2/146 4/5/147
f 4/5/148 26/2/149 2/6/150
f 27/11/151 4/14/152 28/12/153
f 28/12/154 4/14/155 15/16/156
f 28/12/157 15/16/158 29/17/159
f 29/17/160 15/16/161 20/21/162
f 29/17/163 20/21/164 30/22/165
f 30/22/166 20/21/167 6/24/168
f 30/27/169 6/30/170 31/29/171
f 31/29/172 6/30/173 8/32/174
f 32/31/175 31/29/176 8/32/177
f 2/6/178 26/2/179 10/7/180
f 23/68/181 25/69/182 33/70/183
f 33/70/184 25/69/185 26/71/186
