# This file uses centimeters as units for non-parametric coordinates.

mtllib rock_1.mtl
g default
v -9.480091 -0.008220 24.752937
v 12.730564 -0.082559 13.055504
v -6.858173 9.990540 21.409462
v 5.016373 11.436554 18.825287
v -4.057343 9.742094 4.509384
v 5.137100 11.144532 10.889076
v -9.480091 0.572661 5.949318
v 8.939045 0.572661 3.611099
v -5.095322 3.870685 30.091919
v 4.101658 5.090837 26.361221
v 1.646317 10.014803 23.058075
v -3.678307 9.653381 24.908096
v -12.436733 3.557551 21.682076
v -8.958454 7.482325 7.570244
v -11.610966 5.548642 20.317932
v -12.279888 -0.008220 11.468452
v 1.000000 0.572661 1.000000
v -3.475990 3.220566 -0.208282
v 3.648396 7.853082 1.603989
v 8.410397 5.767868 2.623215
v 11.156059 4.040578 6.271523
vt 0.106202 0.164058
vt 0.328024 0.212332
vt 0.158523 0.479759
vt 0.265070 0.133261
vt 0.330279 0.360584
vt 0.066968 0.422581
vt 0.165603 0.098702
vt 0.310937 0.071557
vt 0.442716 0.446842
vt 0.302470 0.534033
vt 0.017418 0.184448
vt 0.472129 0.320114
vt 0.391426 0.514994
vt 0.169383 0.567887
vt 0.001992 0.158966
vt 0.139133 0.001866
vt 0.948544 0.822641
vt 0.900959 0.600598
vt 0.998008 0.739027
vt 0.862007 0.689554
vt 0.998008 0.590723
vt 0.998008 0.934800
vt 0.933226 0.549308
vt 0.826719 0.833501
vt 0.868933 0.925056
vt 0.534912 0.094321
vt 0.730685 0.001866
vt 0.482610 0.197421
vt 0.534912 0.445581
vt 0.878990 0.050642
vt 0.479680 0.388216
vt 0.949817 0.227068
vt 0.616821 0.545316
vt 0.788625 0.475625
vt 0.097509 0.748305
vt 0.109749 0.571879
vt 0.174531 0.621577
vt 0.820584 0.812923
vt 0.747267 0.549308
vt 0.784462 0.574790
vt 0.680657 0.740103
vt 0.691508 0.843203
vt 0.459339 0.571879
vt 0.674522 0.679661
vt 0.555981 0.820436
vt 0.356368 0.752362
vt 0.353469 0.571879
vt 0.453204 0.644338
vt 0.291012 0.758660
vt 0.235898 0.571879
vt 0.284876 0.758660
vt 0.180666 0.638489
vn 0.222971 0.619833 0.752390
vn 0.222971 0.619833 0.752390
vn 0.222971 0.619833 0.752390
vn 0.220633 0.616849 0.755525
vn 0.220633 0.616849 0.755525
vn 0.220633 0.616849 0.755525
vn -0.128491 0.991062 -0.035864
vn -0.128491 0.991062 -0.035864
vn -0.128491 0.991062 -0.035864
vn -0.124600 0.991465 -0.038378
vn -0.124600 0.991465 -0.038378
vn -0.124600 0.991465 -0.038378
vn -0.164577 0.568452 -0.806087
vn -0.164577 0.568452 -0.806087
vn -0.164577 0.568452 -0.806087
vn 0.239301 -0.038205 -0.970194
vn 0.239301 -0.038205 -0.970194
vn 0.239301 -0.038205 -0.970194
vn -0.064611 -0.988488 -0.136813
vn -0.064611 -0.988487 -0.136813
vn -0.064611 -0.988488 -0.136813
vn -0.032854 -0.997888 -0.056040
vn -0.032854 -0.997888 -0.056040
vn -0.032854 -0.997888 -0.056040
vn 0.884533 -0.278247 -0.374406
vn 0.884533 -0.278247 -0.374406
vn 0.884533 -0.278247 -0.374406
vn 0.790251 -0.035910 -0.611730
vn 0.790251 -0.035910 -0.611730
vn 0.790251 -0.035910 -0.611730
vn -0.588922 0.226457 -0.775815
vn -0.588922 0.226457 -0.775814
vn -0.588922 0.226457 -0.775815
vn -0.945544 0.287197 -0.153182
vn -0.945544 0.287197 -0.153182
vn -0.945544 0.287197 -0.153182
vn 0.229644 -0.867350 0.441551
vn 0.229644 -0.867350 0.441551
vn 0.229644 -0.867350 0.441551
vn 0.314437 -0.797969 0.514174
vn 0.314437 -0.797969 0.514174
vn 0.314437 -0.797969 0.514174
vn 0.840446 0.359928 0.405095
vn 0.840446 0.359928 0.405095
vn 0.840446 0.359928 0.405095
vn 0.480861 0.641059 0.598177
vn 0.480861 0.641059 0.598177
vn 0.480861 0.641059 0.598177
vn -0.056474 0.959150 0.277206
vn -0.056474 0.959150 0.277206
vn -0.056474 0.959150 0.277206
vn -0.025945 0.992528 0.119229
vn -0.025945 0.992528 0.119229
vn -0.025945 0.992528 0.119229
vn -0.663146 0.387939 0.640110
vn -0.663146 0.387939 0.640110
vn -0.663146 0.387939 0.640110
vn -0.815174 0.484414 0.317545
vn -0.815174 0.484414 0.317545
vn -0.815174 0.484414 0.317545
vn -0.659364 0.591449 0.464141
vn -0.659364 0.591449 0.464141
vn -0.659364 0.591449 0.464141
vn -0.462648 0.881998 -0.089640
vn -0.462648 0.881998 -0.089640
vn -0.462648 0.881998 -0.089640
vn -0.678820 0.733693 -0.029955
vn -0.678820 0.733693 -0.029955
vn -0.678820 0.733693 -0.029955
vn -0.826506 -0.535300 0.174192
vn -0.826506 -0.535300 0.174192
vn -0.826506 -0.535300 0.174192
vn -0.929877 0.342637 -0.133901
vn -0.929876 0.342637 -0.133901
vn -0.929876 0.342637 -0.133901
vn -0.886136 0.168199 -0.431825
vn -0.886136 0.168199 -0.431825
vn -0.886136 0.168199 -0.431825
vn -0.282375 -0.750167 -0.597925
vn -0.282375 -0.750167 -0.597925
vn -0.282375 -0.750167 -0.597925
vn -0.741582 0.348551 -0.573209
vn -0.741582 0.348551 -0.573209
vn -0.741582 0.348551 -0.573209
vn 0.098080 0.932931 -0.346439
vn 0.098080 0.932931 -0.346438
vn 0.098080 0.932931 -0.346439
vn 0.437839 0.822982 -0.361937
vn 0.437839 0.822982 -0.361937
vn 0.437839 0.822982 -0.361937
vn 0.758914 0.651072 -0.012412
vn 0.758914 0.651072 -0.012412
vn 0.758914 0.651072 -0.012412
vn 0.850946 0.512708 0.114114
vn 0.850946 0.512708 0.114114
vn 0.850946 0.512708 0.114114
vn 0.224248 0.036107 -0.973863
vn 0.224249 0.036107 -0.973863
vn 0.224249 0.036107 -0.973863
vn 0.309025 -0.147221 -0.939590
vn 0.309025 -0.147221 -0.939590
vn 0.309025 -0.147221 -0.939590
vn 0.687352 0.702443 -0.184722
vn 0.687352 0.702443 -0.184722
vn 0.687352 0.702443 -0.184722
vn 0.037482 -0.999266 -0.007900
vn 0.037482 -0.999266 -0.007900
vn 0.037482 -0.999266 -0.007900
vn 0.007022 -0.999747 -0.021351
vn 0.007022 -0.999747 -0.021351
vn 0.007022 -0.999747 -0.021351
vn -0.401487 0.383407 0.831750
vn -0.401487 0.383407 0.831750
vn -0.401487 0.383407 0.831750
s off
g polySurface81 polySurface74
usemtl initialShadingGroup
f 9/16/1 10/8/2 12/7/3
f 12/7/4 10/8/5 11/4/6
f 3/1/7 4/2/8 5/3/9
f 5/3/10 4/2/11 6/5/12
f 5/3/13 19/10/14 18/14/15
f 18/17/16 20/18/17 17/19/18
f 7/26/19 17/27/20 16/28/21
f 1/29/22 8/30/23 2/32/24
f 2/35/25 8/36/26 21/37/27
f 21/23/28 8/21/29 20/18/30
f 5/24/31 7/22/32 14/25/33
f 14/38/34 13/39/35 15/40/36
f 1/29/37 2/32/38 9/33/39
f 9/33/40 2/32/41 10/34/42
f 2/43/43 4/44/44 10/45/45
f 10/8/46 4/2/47 11/4/48
f 4/2/49 3/1/50 11/4/51
f 11/4/52 3/1/53 12/7/54
f 3/49/55 1/47/56 12/46/57
f 12/46/58 1/47/59 9/48/60
f 13/15/61 3/1/62 15/11/63
f 3/1/64 5/3/65 14/6/66
f 3/1/67 14/6/68 15/11/69
f 13/31/70 16/28/71 1/29/72
f 14/38/73 16/41/74 13/39/75
f 14/38/76 7/42/77 16/41/78
f 7/22/79 18/17/80 17/19/81
f 5/24/82 18/17/83 7/22/84
f 5/3/85 6/5/86 19/10/87
f 20/13/88 19/10/89 6/5/90
f 4/2/91 21/9/92 6/5/93
f 2/12/94 21/9/95 4/2/96
f 18/17/97 19/20/98 20/18/99
f 17/19/100 20/18/101 8/21/102
f 6/5/103 21/9/104 20/13/105
f 16/28/106 17/27/107 1/29/108
f 1/29/109 17/27/110 8/30/111
f 1/50/112 3/51/113 13/52/114
