# This file uses centimeters as units for non-parametric coordinates.

mtllib tree_stump.mtl
g default
v -2.915023 -0.003740 5.149927
v 5.250232 -0.003740 4.533628
v -0.716261 3.368005 4.893457
v 4.722388 3.393219 3.445680
v -2.640790 2.864399 -2.595587
v 3.535584 1.895829 -1.872504
v -4.659842 -0.003740 -4.665682
v 2.688631 -0.003710 -6.560461
v 1.126279 3.575093 5.555707
v 0.908861 1.797963 -3.318297
v -1.593441 -0.003740 -7.707304
v 0.775364 -0.003740 5.799924
v -3.406470 3.007829 0.965841
v -5.707592 -0.003740 -0.727519
v -0.159978 -0.003740 -1.907645
v 6.398589 -0.003760 -2.167929
v 4.578587 1.560540 0.372545
v 1.648466 6.960335 4.523237
v -1.189472 7.069333 3.055616
v -2.303539 6.551227 1.364938
v -1.821996 5.953696 -0.584803
v 0.754998 5.202691 -3.035258
v 3.012370 5.388178 -2.429888
v 4.228071 5.936337 -0.641196
v 3.993281 6.777791 2.104433
v 0.991427 6.338049 0.669469
vt 0.729327 0.781108
vt 0.729327 0.640924
vt 0.857408 0.697585
vt 0.865274 0.627594
vt 0.729327 0.470939
vt 0.993868 0.607758
vt 0.858366 0.490990
vt 0.998008 0.715561
vt 0.986933 0.518686
vt 0.978327 0.757880
vt 0.843726 0.799777
vt 0.721271 0.300225
vt 0.626218 0.466948
vt 0.586432 0.272772
vt 0.788878 0.423383
vt 0.509736 0.351407
vt 0.821051 0.245304
vt 0.469936 0.201810
vt 0.929806 0.256526
vt 0.557347 0.137486
vt 0.860671 0.160023
vt 0.886185 0.001958
vt 0.001992 0.267095
vt 0.212726 0.222266
vt 0.108072 0.490359
vt 0.041792 0.117498
vt 0.248257 0.515050
vt 0.158274 0.001958
vt 0.418241 0.466948
vt 0.320935 0.045522
vt 0.461863 0.212379
vt 0.211337 0.783561
vt 0.270759 0.625496
vt 0.340376 0.742233
vt 0.436980 0.586987
vt 0.283495 0.540214
vt 0.468944 0.691284
vt 0.416157 0.519041
vt 0.001992 0.980915
vt 0.001992 0.757651
vt 0.116391 0.916590
vt 0.130073 0.767393
vt 0.201485 0.519041
vt 0.205202 0.618821
vt 0.068823 0.538916
vt 0.075869 0.624666
vt 0.164692 0.753660
vt 0.047341 0.722557
vt 0.136665 0.937998
vt 0.142113 0.802712
vt 0.254016 0.861616
vt 0.276714 0.787552
vt 0.517398 0.526689
vt 0.625202 0.470939
vt 0.600243 0.617330
vt 0.714273 0.562821
vt 0.475079 0.590912
vt 0.723192 0.667118
vt 0.493371 0.664975
vt 0.677012 0.735064
vt 0.591262 0.758060
vn -0.170475 0.184790 0.967880
vn -0.170475 0.184790 0.967880
vn -0.170475 0.184791 0.967880
vn -0.346321 0.097627 0.933023
vn -0.346321 0.097627 0.933023
vn -0.346321 0.097627 0.933023
vn 0.169795 0.873875 -0.455534
vn 0.169795 0.873875 -0.455534
vn 0.169795 0.873875 -0.455534
vn -0.495936 0.709980 -0.499977
vn -0.495936 0.709980 -0.499977
vn -0.495936 0.709980 -0.499977
vn 0.000000 -1.000000 0.000000
vn 0.000000 -1.000000 0.000000
vn 0.000000 -1.000000 0.000000
vn 0.000000 -1.000000 0.000000
vn 0.000000 -1.000000 0.000000
vn 0.000000 -1.000000 0.000000
vn 0.742700 0.657420 0.127264
vn 0.742700 0.657420 0.127264
vn 0.742700 0.657420 0.127264
vn 0.986475 0.116290 -0.115511
vn 0.986475 0.116290 -0.115511
vn 0.986475 0.116290 -0.115511
vn -0.824031 0.409489 0.391524
vn -0.824031 0.409489 0.391524
vn -0.824031 0.409489 0.391524
vn -0.730397 0.510794 0.453443
vn -0.730397 0.510794 0.453443
vn -0.730397 0.510794 0.453443
vn 0.115978 0.893872 -0.433060
vn 0.115978 0.893872 -0.433060
vn 0.115978 0.893872 -0.433060
vn 0.185372 0.898633 -0.397612
vn 0.185372 0.898633 -0.397612
vn 0.185372 0.898633 -0.397612
vn 0.000000 -1.000000 0.000000
vn 0.000000 -1.000000 0.000000
vn 0.000000 -1.000000 0.000000
vn -0.000003 -1.000000 0.000003
vn -0.000003 -1.000000 0.000003
vn -0.000003 -1.000000 0.000003
vn 0.272081 0.038933 0.961486
vn 0.272081 0.038933 0.961486
vn 0.272081 0.038933 0.961486
vn 0.489510 0.334036 0.805481
vn 0.489510 0.334036 0.805481
vn 0.489511 0.334036 0.805481
vn -0.730577 0.654582 -0.194370
vn -0.730577 0.654582 -0.194370
vn -0.730577 0.654582 -0.194370
vn -0.728717 0.659843 -0.183243
vn -0.728717 0.659843 -0.183243
vn -0.728717 0.659843 -0.183243
vn 0.000000 -1.000000 0.000000
vn 0.000000 -1.000000 0.000000
vn 0.000000 -1.000000 0.000000
vn 0.000000 -1.000000 0.000000
vn 0.000000 -1.000000 0.000000
vn 0.000000 -1.000000 0.000000
vn -0.000003 -1.000000 -0.000009
vn -0.000003 -1.000000 -0.000009
vn -0.000003 -1.000000 -0.000009
vn 0.000007 -1.000000 -0.000002
vn 0.000007 -1.000000 -0.000002
vn 0.000007 -1.000000 -0.000002
vn 0.539368 0.832553 -0.126241
vn 0.539368 0.832553 -0.126241
vn 0.539368 0.832553 -0.126241
vn 0.476836 0.781305 -0.402729
vn 0.476836 0.781305 -0.402729
vn 0.476836 0.781305 -0.402729
vn -0.352066 0.322312 0.878729
vn -0.352066 0.322312 0.878729
vn -0.352066 0.322312 0.878729
vn -0.417454 0.360750 0.834021
vn -0.417454 0.360750 0.834021
vn -0.417454 0.360750 0.834021
vn -0.817624 0.193418 0.542292
vn -0.817624 0.193418 0.542293
vn -0.817624 0.193418 0.542293
vn -0.846036 0.146377 0.512637
vn -0.846036 0.146377 0.512637
vn -0.846036 0.146377 0.512637
vn 0.504577 0.179719 0.844455
vn 0.504577 0.179719 0.844455
vn 0.504577 0.179719 0.844455
vn 0.674902 0.392908 0.624604
vn 0.674902 0.392908 0.624604
vn 0.674902 0.392908 0.624604
vn 0.994739 0.060535 -0.082647
vn 0.994739 0.060535 -0.082647
vn 0.994739 0.060535 -0.082647
vn 0.976029 0.216980 0.016966
vn 0.976029 0.216980 0.016966
vn 0.976029 0.216980 0.016966
vn 0.905127 -0.025807 -0.424358
vn 0.905127 -0.025807 -0.424358
vn 0.905127 -0.025807 -0.424358
vn 0.821980 0.032398 -0.568593
vn 0.821981 0.032398 -0.568593
vn 0.821981 0.032398 -0.568593
vn 0.483028 -0.066972 -0.873040
vn 0.483028 -0.066972 -0.873040
vn 0.483028 -0.066972 -0.873040
vn 0.250926 0.091451 -0.963677
vn 0.250926 0.091451 -0.963677
vn 0.250926 0.091451 -0.963677
vn -0.177705 0.073549 -0.981332
vn -0.177705 0.073549 -0.981332
vn -0.177705 0.073549 -0.981332
vn -0.476209 0.564858 -0.673915
vn -0.476209 0.564858 -0.673915
vn -0.476209 0.564858 -0.673915
vn -0.902896 0.375496 -0.209239
vn -0.902896 0.375496 -0.209239
vn -0.902896 0.375496 -0.209239
vn -0.894752 0.314241 -0.317288
vn -0.894752 0.314241 -0.317288
vn -0.894752 0.314241 -0.317288
vn 0.130365 0.975050 -0.179672
vn 0.130365 0.975050 -0.179672
vn 0.130365 0.975050 -0.179672
vn 0.000014 0.956110 -0.293008
vn 0.000014 0.956110 -0.293008
vn 0.000014 0.956110 -0.293008
vn 0.000013 0.956109 -0.293013
vn 0.000013 0.956109 -0.293013
vn 0.000013 0.956109 -0.293013
vn 0.000012 0.956109 -0.293012
vn 0.000012 0.956109 -0.293012
vn 0.000012 0.956109 -0.293012
vn 0.000014 0.956109 -0.293012
vn 0.000014 0.956109 -0.293012
vn 0.000014 0.956109 -0.293012
vn 0.000011 0.956108 -0.293015
vn 0.000011 0.956108 -0.293015
vn 0.000011 0.956108 -0.293015
vn 0.000009 0.956107 -0.293018
vn 0.000009 0.956107 -0.293018
vn 0.000009 0.956107 -0.293018
vn -0.074424 0.986394 -0.146589
vn -0.074424 0.986394 -0.146589
vn -0.074424 0.986394 -0.146589
s off
g polySurface84 polySurface74
usemtl initialShadingGroup
f 1/1/1 12/2/2 3/3/3
f 3/3/4 12/2/5 9/4/6
f 10/12/7 11/13/8 5/14/9
f 5/14/10 11/13/11 7/16/12
f 14/23/13 15/24/14 1/25/15
f 1/25/16 15/24/17 12/27/18
f 16/19/19 17/21/20 2/22/21
f 2/32/22 17/33/23 4/34/24
f 14/39/25 1/40/26 13/41/27
f 13/41/28 1/40/29 3/42/30
f 11/13/31 10/12/32 8/15/33
f 8/15/34 10/12/35 6/17/36
f 12/27/37 15/24/38 2/29/39
f 2/29/40 15/24/41 16/31/42
f 12/2/43 2/5/44 9/4/45
f 9/4/46 2/5/47 4/7/48
f 7/16/49 14/18/50 5/14/51
f 5/14/52 14/18/53 13/20/54
f 11/28/55 15/24/56 7/26/57
f 7/26/58 15/24/59 14/23/60
f 16/31/61 15/24/62 8/30/63
f 8/30/64 15/24/65 11/28/66
f 17/21/67 16/19/68 6/17/69
f 6/17/70 16/19/71 8/15/72
f 9/4/73 18/6/74 3/3/75
f 3/3/76 18/6/77 19/8/78
f 13/11/79 3/3/80 20/10/81
f 20/10/82 3/3/83 19/8/84
f 9/4/85 4/7/86 18/6/87
f 18/6/88 4/7/89 25/9/90
f 17/33/91 24/35/92 4/34/93
f 4/34/94 24/35/95 25/37/96
f 17/33/97 6/36/98 24/35/99
f 24/35/100 6/36/101 23/38/102
f 6/43/103 10/44/104 23/45/105
f 23/45/106 10/44/107 22/46/108
f 10/44/109 5/47/110 22/46/111
f 22/46/112 5/47/113 21/48/114
f 5/49/115 13/50/116 21/51/117
f 21/51/118 13/50/119 20/52/120
f 19/53/121 18/54/122 26/55/123
f 20/57/124 19/53/125 26/55/126
f 21/59/127 20/57/128 26/55/129
f 22/61/130 21/59/131 26/55/132
f 23/60/133 22/61/134 26/55/135
f 24/58/136 23/60/137 26/55/138
f 25/56/139 24/58/140 26/55/141
f 18/54/142 25/56/143 26/55/144
