# This file uses centimeters as units for non-parametric coordinates.

mtllib tree_2.mtl
g default
v -2.886246 -0.003729 2.975032
v 2.298843 -0.003729 4.297428
v -3.204285 24.217634 2.348934
v 0.133864 21.857584 4.182578
v -1.834356 22.547953 0.357166
v 1.253586 20.550823 1.112205
v -3.767900 -0.003729 -1.389077
v 1.029495 -0.003766 -2.560948
v -2.099485 23.438038 4.044864
v 0.148590 21.210161 -0.029774
v -1.688854 -0.003729 -3.269665
v -0.063698 -0.003729 4.774719
v -2.904344 23.619781 1.026565
v -4.577659 -0.003729 1.045623
v 3.268135 -0.003704 0.154338
v 1.180821 21.063229 2.693134
v -2.644251 131.326721 -2.926900
v -1.813114 130.872574 -2.365567
v -1.813114 130.872574 -3.517216
v -3.084167 131.567123 -3.517216
v -0.981983 130.418411 -2.926900
v -0.773838 130.304672 -3.517216
v -0.981983 130.418411 -4.107529
v -1.813114 130.872574 -4.750783
v -2.644251 131.326721 -4.107529
v -0.425291 49.610336 4.562435
v -1.961140 49.988777 3.500472
v -2.276972 50.482880 2.374099
v -1.457300 51.141914 1.571517
v 0.177593 52.118752 0.859767
v 1.576462 51.878151 1.734504
v 1.940891 51.335838 2.929672
v 1.148682 50.175198 4.102153
v -1.401739 91.770020 -2.506901
v -0.152288 92.248520 -2.356835
v 0.544846 92.970146 -1.867402
v 0.723076 93.667038 -1.069966
v 0.147810 94.224480 -0.306718
v -1.174311 93.732910 -0.463765
v -1.935165 93.012177 -0.900967
v -1.877464 92.385429 -1.592744
vt 0.288102 0.001992
vt 0.288102 0.010710
vt 0.281810 0.006242
vt 0.294394 0.006242
vt 0.278480 0.010710
vt 0.295970 0.010710
vt 0.281810 0.015179
vt 0.294394 0.015179
vt 0.288102 0.020049
vt 0.099865 0.822030
vt 0.114876 0.832157
vt 0.085228 0.992750
vt 0.115096 0.598173
vt 0.100966 0.992750
vt 0.102719 0.605568
vt 0.125685 0.599994
vt 0.123241 0.837148
vt 0.091765 0.813916
vt 0.099539 0.293347
vt 0.103140 0.298006
vt 0.121545 0.992750
vt 0.079098 0.992750
vt 0.096514 0.610557
vt 0.112599 0.294383
vt 0.138492 0.992750
vt 0.099102 0.288602
vt 0.106318 0.005430
vt 0.117876 0.288920
vt 0.100026 0.001992
vt 0.176329 0.001992
vt 0.157110 0.161473
vt 0.144965 0.001992
vt 0.169078 0.157594
vt 0.145834 0.167486
vt 0.155319 0.390642
vt 0.146443 0.381856
vt 0.164367 0.394748
vt 0.191634 0.705822
vt 0.185597 0.711097
vt 0.179819 0.715317
vt 0.204123 0.988451
vt 0.199655 0.989312
vt 0.208592 0.989312
vt 0.195405 0.992750
vt 0.044326 0.180826
vt 0.059077 0.001992
vt 0.054337 0.185352
vt 0.044471 0.001992
vt 0.067175 0.179451
vt 0.054527 0.384185
vt 0.072701 0.001992
vt 0.071094 0.377580
vt 0.063054 0.380445
vt 0.029735 0.706140
vt 0.033044 0.711596
vt 0.009929 0.998008
vt 0.014398 0.996188
vt 0.005460 0.996188
vt 0.018647 0.992750
vt 0.024498 0.701395
vt 0.048452 0.389174
vt 0.000591 0.992750
vt 0.017577 0.696736
vt 0.043064 0.396569
vt 0.214393 0.179451
vt 0.229804 0.001992
vt 0.231300 0.167486
vt 0.247689 0.001992
vt 0.238982 0.381856
vt 0.227067 0.377580
vt 0.231405 0.715317
vt 0.221397 0.711596
vt 0.216561 0.992750
vt 0.253557 0.001992
vt 0.271989 0.001992
vt 0.266777 0.172712
vn -0.537511 -0.020433 0.843009
vn -0.537511 -0.020433 0.843009
vn -0.537511 -0.020433 0.843009
vn -0.837226 0.003142 0.546848
vn -0.837226 0.003142 0.546848
vn -0.837226 0.003142 0.546848
vn 0.479500 0.877542 0.000000
vn 0.479500 0.877542 0.000000
vn 0.479500 0.877542 0.000000
vn 0.479517 0.877532 0.000045
vn 0.479517 0.877533 0.000045
vn 0.479517 0.877533 0.000045
vn -0.133351 0.087872 -0.987166
vn -0.133351 0.087872 -0.987166
vn -0.133351 0.087872 -0.987166
vn -0.661184 0.168905 -0.730963
vn -0.661184 0.168905 -0.730963
vn -0.661184 0.168905 -0.730963
vn 0.971396 0.068858 0.227262
vn 0.971396 0.068858 0.227262
vn 0.971396 0.068858 0.227262
vn 0.836019 0.085640 0.541976
vn 0.836019 0.085640 0.541976
vn 0.836019 0.085640 0.541976
vn -0.750877 0.053718 0.658254
vn -0.750877 0.053718 0.658254
vn -0.750877 0.053718 0.658254
vn -0.976821 -0.018339 -0.213272
vn -0.976821 -0.018339 -0.213272
vn -0.976821 -0.018339 -0.213272
vn 0.479518 0.877532 0.000000
vn 0.479518 0.877532 0.000000
vn 0.479518 0.877532 0.000000
vn 0.479520 0.877531 0.000000
vn 0.479520 0.877531 0.000000
vn 0.479519 0.877531 0.000000
vn 0.729773 0.041018 -0.682458
vn 0.729773 0.041018 -0.682458
vn 0.729773 0.041018 -0.682458
vn 0.248709 0.167760 -0.953939
vn 0.248709 0.167760 -0.953939
vn 0.248709 0.167760 -0.953939
vn -0.042174 0.027433 0.998734
vn -0.042174 0.027433 0.998734
vn -0.042174 0.027433 0.998734
vn 0.197961 0.024753 0.979897
vn 0.197961 0.024753 0.979897
vn 0.197961 0.024753 0.979897
vn -0.943628 0.105207 -0.313843
vn -0.943628 0.105207 -0.313843
vn -0.943628 0.105207 -0.313843
vn -0.504582 0.035045 -0.862652
vn -0.504582 0.035045 -0.862652
vn -0.504582 0.035045 -0.862652
vn 0.995193 0.096868 0.014409
vn 0.995193 0.096868 0.014409
vn 0.995193 0.096868 0.014409
vn 0.767337 0.104689 -0.632641
vn 0.767337 0.104689 -0.632641
vn 0.767337 0.104689 -0.632641
vn 0.479513 0.877535 0.000000
vn 0.479513 0.877535 0.000000
vn 0.479513 0.877535 0.000000
vn 0.479519 0.877532 0.000000
vn 0.479519 0.877532 0.000000
vn 0.479519 0.877532 0.000000
vn 0.479514 0.877534 -0.000045
vn 0.479514 0.877534 -0.000045
vn 0.479514 0.877534 -0.000045
vn 0.479502 0.877541 0.000000
vn 0.479502 0.877541 0.000000
vn 0.479502 0.877541 0.000000
vn -0.828229 0.041930 0.558820
vn -0.828229 0.041930 0.558820
vn -0.828229 0.041930 0.558820
vn -0.570244 -0.009197 0.821424
vn -0.570244 -0.009197 0.821424
vn -0.570244 -0.009197 0.821424
vn -0.971168 0.034513 -0.235883
vn -0.971168 0.034513 -0.235883
vn -0.971168 0.034513 -0.235883
vn -0.958397 0.033565 0.283457
vn -0.958397 0.033565 0.283457
vn -0.958397 0.033565 0.283457
vn -0.058078 0.004917 0.998300
vn -0.058078 0.004917 0.998300
vn -0.058078 0.004917 0.998300
vn 0.292893 -0.037630 0.955404
vn 0.292893 -0.037630 0.955404
vn 0.292893 -0.037630 0.955404
vn 0.810869 -0.027399 0.584586
vn 0.810869 -0.027399 0.584586
vn 0.810869 -0.027399 0.584586
vn 0.839775 -0.025323 0.542343
vn 0.839775 -0.025323 0.542343
vn 0.839775 -0.025323 0.542343
vn 0.998205 -0.025486 0.054205
vn 0.998205 -0.025486 0.054205
vn 0.998205 -0.025486 0.054205
vn 0.956003 -0.004027 -0.293331
vn 0.956003 -0.004027 -0.293331
vn 0.956003 -0.004027 -0.293331
vn 0.720464 0.006350 -0.693464
vn 0.720464 0.006350 -0.693464
vn 0.720464 0.006350 -0.693464
vn 0.532986 0.023841 -0.845788
vn 0.532986 0.023841 -0.845788
vn 0.532986 0.023841 -0.845788
vn -0.172890 0.028497 -0.984529
vn -0.172890 0.028497 -0.984529
vn -0.172890 0.028497 -0.984529
vn -0.420774 0.044029 -0.906096
vn -0.420774 0.044029 -0.906096
vn -0.420774 0.044029 -0.906096
vn -0.498307 0.043346 -0.865917
vn -0.498307 0.043346 -0.865917
vn -0.498307 0.043346 -0.865917
vn -0.719539 0.051544 -0.692536
vn -0.719539 0.051544 -0.692536
vn -0.719539 0.051544 -0.692536
vn -0.552400 0.085083 0.829226
vn -0.552400 0.085083 0.829226
vn -0.552400 0.085083 0.829226
vn -0.157169 0.109142 0.981522
vn -0.157169 0.109142 0.981522
vn -0.157169 0.109142 0.981522
vn -0.959020 0.029409 0.281808
vn -0.959020 0.029409 0.281808
vn -0.959020 0.029409 0.281808
vn -0.555705 0.084943 0.827029
vn -0.555705 0.084943 0.827029
vn -0.555705 0.084943 0.827029
vn -0.677445 -0.051063 -0.733799
vn -0.677445 -0.051063 -0.733799
vn -0.677445 -0.051063 -0.733799
vn -0.997484 -0.015470 -0.069186
vn -0.997484 -0.015470 -0.069186
vn -0.997484 -0.015470 -0.069186
vn -0.360022 -0.075013 -0.929923
vn -0.360022 -0.075013 -0.929923
vn -0.360022 -0.075013 -0.929923
vn -0.903763 -0.071825 -0.421964
vn -0.903763 -0.071825 -0.421964
vn -0.903763 -0.071825 -0.421964
vn 0.523119 -0.051395 -0.850709
vn 0.523119 -0.051395 -0.850709
vn 0.523119 -0.051395 -0.850709
vn 0.153809 -0.093107 -0.983704
vn 0.153809 -0.093107 -0.983704
vn 0.153809 -0.093107 -0.983704
vn 0.956316 -0.001616 -0.292332
vn 0.956316 -0.001616 -0.292332
vn 0.956316 -0.001616 -0.292332
vn 0.610553 -0.053931 -0.790137
vn 0.610553 -0.053931 -0.790137
vn 0.610553 -0.053931 -0.790137
vn 0.787168 0.080421 0.611473
vn 0.787168 0.080421 0.611473
vn 0.787168 0.080421 0.611473
vn 0.974600 0.006887 -0.223846
vn 0.974600 0.006887 -0.223846
vn 0.974600 0.006887 -0.223846
vn 0.245294 0.102066 0.964061
vn 0.245294 0.102066 0.964061
vn 0.245294 0.102066 0.964061
vn 0.821940 0.075185 0.564590
vn 0.821940 0.075185 0.564590
vn 0.821940 0.075185 0.564590
vn 0.135151 -0.042465 -0.989915
vn 0.135151 -0.042465 -0.989915
vn 0.135151 -0.042465 -0.989915
vn 0.597934 -0.039649 -0.800564
vn 0.597934 -0.039649 -0.800564
vn 0.597934 -0.039649 -0.800564
vn 0.591044 -0.024133 -0.806279
vn 0.591044 -0.024133 -0.806278
vn 0.591044 -0.024133 -0.806278
vn 0.944055 0.018795 -0.329252
vn 0.944055 0.018795 -0.329252
vn 0.944055 0.018795 -0.329252
vn 0.971019 0.023788 -0.237815
vn 0.971019 0.023788 -0.237815
vn 0.971019 0.023788 -0.237815
vn 0.944961 0.060092 0.321617
vn 0.944961 0.060092 0.321617
vn 0.944961 0.060092 0.321617
vn 0.819630 0.066776 0.568988
vn 0.819630 0.066776 0.568988
vn 0.819630 0.066776 0.568988
vn 0.586471 0.076680 0.806332
vn 0.586471 0.076680 0.806332
vn 0.586471 0.076680 0.806332
vn -0.135520 0.048343 0.989595
vn -0.135520 0.048343 0.989595
vn -0.135520 0.048343 0.989595
vn -0.546767 0.033436 0.836617
vn -0.546767 0.033436 0.836617
vn -0.546767 0.033436 0.836617
vn -0.527310 0.041872 0.848641
vn -0.527310 0.041872 0.848641
vn -0.527310 0.041872 0.848641
vn -0.800248 0.007997 0.599616
vn -0.800248 0.007997 0.599616
vn -0.800248 0.007997 0.599616
vn -0.997808 -0.023639 -0.061810
vn -0.997808 -0.023639 -0.061810
vn -0.997808 -0.023639 -0.061810
vn -0.812439 -0.063541 -0.579573
vn -0.812439 -0.063541 -0.579573
vn -0.812439 -0.063541 -0.579573
vn -0.895946 -0.034836 -0.442795
vn -0.895946 -0.034836 -0.442795
vn -0.895946 -0.034836 -0.442795
vn -0.631936 -0.062331 -0.772510
vn -0.631936 -0.062331 -0.772510
vn -0.631936 -0.062331 -0.772510
s off
g polySurface77 polySurface74
usemtl initialShadingGroup
f 12/51/1 9/49/2 1/46/3
f 1/46/4 9/49/5 3/47/6
f 18/1/7 19/2/8 17/3/9
f 17/3/10 19/2/11 20/5/12
f 5/10/13 10/11/14 7/12/15
f 7/12/16 10/11/17 11/14/18
f 15/30/19 16/31/20 2/32/21
f 2/32/22 16/31/23 4/34/24
f 14/48/25 1/46/26 13/45/27
f 13/45/28 1/46/29 3/47/30
f 18/1/31 21/4/32 19/2/33
f 19/2/34 21/4/35 22/6/36
f 10/11/37 6/17/38 11/14/39
f 11/14/40 6/17/41 8/21/42
f 9/65/43 12/66/44 4/67/45
f 4/67/46 12/66/47 2/68/48
f 7/74/49 14/75/50 5/76/51
f 5/10/52 14/22/53 13/18/54
f 16/31/55 15/30/56 6/33/57
f 6/17/58 15/25/59 8/21/60
f 22/6/61 23/8/62 19/2/63
f 19/2/64 23/8/65 24/9/66
f 20/5/67 19/2/68 25/7/69
f 25/7/70 19/2/71 24/9/72
f 9/49/73 26/52/74 3/47/75
f 3/47/76 26/52/77 27/53/78
f 13/45/79 3/47/80 28/50/81
f 28/50/82 3/47/83 27/53/84
f 4/67/85 33/69/86 9/65/87
f 9/65/88 33/69/89 26/70/90
f 4/34/91 16/31/92 33/36/93
f 33/36/94 16/31/95 32/35/96
f 16/31/97 6/33/98 32/35/99
f 32/35/100 6/33/101 31/37/102
f 6/17/103 10/11/104 31/16/105
f 31/16/106 10/11/107 30/13/108
f 10/11/109 5/10/110 30/13/111
f 30/13/112 5/10/113 29/15/114
f 5/10/115 13/18/116 29/15/117
f 29/15/118 13/18/119 28/23/120
f 27/53/121 26/52/122 39/55/123
f 39/72/124 26/70/125 38/71/126
f 28/50/127 27/53/128 40/54/129
f 40/54/130 27/53/131 39/55/132
f 28/23/133 40/26/134 29/15/135
f 29/61/136 40/54/137 41/60/138
f 29/15/139 41/19/140 30/13/141
f 30/64/142 41/60/143 34/63/144
f 30/13/145 34/20/146 31/16/147
f 31/16/148 34/20/149 35/24/150
f 32/35/151 31/37/152 36/38/153
f 36/28/154 31/16/155 35/24/156
f 33/36/157 32/35/158 37/39/159
f 37/39/160 32/35/161 36/38/162
f 26/70/163 33/69/164 38/71/165
f 38/40/166 33/36/167 37/39/168
f 35/24/169 34/20/170 23/27/171
f 23/27/172 34/20/173 24/29/174
f 35/24/175 23/27/176 36/28/177
f 36/38/178 23/43/179 22/41/180
f 36/38/181 22/41/182 37/39/183
f 37/39/184 22/41/185 21/42/186
f 37/39/187 21/42/188 38/40/189
f 38/40/190 21/42/191 18/44/192
f 38/71/193 18/73/194 39/72/195
f 39/55/196 18/59/197 17/57/198
f 40/54/199 39/55/200 20/56/201
f 20/56/202 39/55/203 17/57/204
f 41/60/205 40/54/206 25/58/207
f 25/58/208 40/54/209 20/56/210
f 34/63/211 41/60/212 24/62/213
f 24/62/214 41/60/215 25/58/216
