# This file uses centimeters as units for non-parametric coordinates.

mtllib tree_3.mtl
g default
v -3.111749 -0.003698 6.739951
v 5.053513 -0.003698 6.123648
v 0.849838 22.105640 4.904562
v 6.566933 24.258402 2.862524
v 2.069166 25.604853 0.589613
v 6.601934 29.068928 -1.379129
v -4.856566 -0.003698 -3.075662
v 2.491904 -0.003914 -4.970438
v 3.686247 22.196539 5.195036
v 4.364443 28.541014 -1.477213
v -1.790167 -0.003698 -6.117281
v 1.426067 -0.003698 6.895308
v 0.726674 23.612705 2.784193
v -5.904311 -0.003698 0.862502
v 6.201868 -0.003557 -0.577905
v 7.136855 27.646183 0.882605
v 4.372289 131.326721 -0.115839
v 4.903851 130.872574 1.053709
v 5.953544 130.872574 -0.449060
v 4.358186 131.567123 -1.117471
v 6.458677 130.418411 0.758307
v 7.257986 130.304672 0.097472
v 7.534786 130.418411 -0.782274
v 7.077900 130.872574 -2.058710
v 5.448398 131.326721 -1.656419
v 5.751576 54.921970 6.035513
v 4.493141 53.261158 4.405112
v 4.527269 52.508282 2.771750
v 5.582070 52.983433 1.519003
v 7.381592 54.396656 0.241774
v 8.542148 55.922741 1.550810
v 8.541533 56.726086 3.300314
v 7.479877 56.140106 5.320502
v 6.977528 113.579697 -3.001260
v 7.961421 112.114105 -2.325891
v 7.999778 111.045822 -1.260805
v 7.073344 110.249046 -0.005998
v 5.514843 110.340050 0.993430
v 4.476317 111.895569 0.290137
v 4.296779 112.982788 -0.735208
v 5.271743 113.406967 -1.801386
vt 0.194681 0.001992
vt 0.229034 0.001992
vt 0.224671 0.169364
vt 0.246144 0.170052
vt 0.256494 0.001992
vt 0.252252 0.405217
vt 0.267951 0.185661
vt 0.261779 0.417790
vt 0.259986 0.837315
vt 0.274862 0.427011
vt 0.252125 0.849091
vt 0.271785 0.836626
vt 0.255361 0.992750
vt 0.267131 0.989312
vt 0.278798 0.842658
vt 0.282899 0.431447
vt 0.273182 0.988451
vt 0.391973 0.021909
vt 0.403349 0.013962
vt 0.400826 0.025933
vt 0.394209 0.010138
vt 0.408409 0.026039
vt 0.399211 0.004087
vt 0.412489 0.017786
vt 0.405871 0.001992
vt 0.415534 0.005451
vt 0.104181 0.001994
vt 0.154913 0.001995
vt 0.128868 0.185662
vt 0.143857 0.211309
vt 0.188165 0.001992
vt 0.110261 0.427013
vt 0.160978 0.222079
vt 0.125554 0.431449
vt 0.150584 0.836628
vt 0.138798 0.425367
vt 0.148708 0.413815
vt 0.160083 0.842659
vt 0.168146 0.850747
vt 0.173258 0.861842
vt 0.149800 0.988453
vt 0.156460 0.989314
vt 0.166123 0.992752
vt 0.098161 0.001992
vt 0.084267 0.169364
vt 0.053668 0.001992
vt 0.068215 0.180773
vt 0.080486 0.405217
vt 0.023855 0.001992
vt 0.068121 0.399518
vt 0.051602 0.195854
vt 0.049335 0.849091
vt 0.000829 0.001992
vt 0.041573 0.857321
vt 0.058638 0.403115
vt 0.035956 0.218081
vt 0.046261 0.996188
vt 0.055115 0.992750
vt 0.038679 0.998008
vt 0.033502 0.860532
vt 0.048969 0.413813
vt 0.024418 0.861840
vt 0.031554 0.992750
vt 0.288802 0.413813
vt 0.335394 0.197724
vt 0.321218 0.413815
vt 0.352332 0.193728
vt 0.358234 0.001992
vt 0.371738 0.139468
vt 0.364822 0.001992
vt 0.373076 0.003812
vt 0.385411 0.007250
vn -0.034083 0.088745 0.995471
vn -0.034083 0.088745 0.995471
vn -0.034083 0.088745 0.995471
vn -0.104231 0.086494 0.990785
vn -0.104231 0.086494 0.990785
vn -0.104231 0.086495 0.990785
vn 0.311519 0.924991 0.217597
vn 0.311519 0.924991 0.217597
vn 0.311519 0.924991 0.217597
vn 0.311523 0.924983 0.217625
vn 0.311523 0.924983 0.217625
vn 0.311523 0.924983 0.217625
vn -0.808337 0.260137 -0.528128
vn -0.808337 0.260137 -0.528128
vn -0.808337 0.260137 -0.528128
vn -0.675990 0.280359 -0.681496
vn -0.675990 0.280359 -0.681496
vn -0.675990 0.280359 -0.681496
vn 0.984894 -0.038751 0.168767
vn 0.984894 -0.038751 0.168767
vn 0.984894 -0.038751 0.168767
vn 0.977525 -0.043947 0.206186
vn 0.977525 -0.043947 0.206186
vn 0.977526 -0.043947 0.206186
vn -0.886120 0.193727 0.421024
vn -0.886120 0.193727 0.421024
vn -0.886120 0.193727 0.421024
vn -0.941795 0.245770 0.229388
vn -0.941795 0.245770 0.229388
vn -0.941795 0.245770 0.229388
vn 0.311531 0.924986 0.217598
vn 0.311531 0.924986 0.217598
vn 0.311531 0.924986 0.217598
vn 0.311531 0.924983 0.217612
vn 0.311531 0.924983 0.217612
vn 0.311531 0.924983 0.217612
vn 0.257397 0.100724 -0.961042
vn 0.257397 0.100724 -0.961042
vn 0.257397 0.100724 -0.961042
vn 0.015084 0.120481 -0.992601
vn 0.015084 0.120481 -0.992601
vn 0.015084 0.120481 -0.992601
vn 0.207773 0.053651 0.976705
vn 0.207773 0.053651 0.976705
vn 0.207773 0.053651 0.976705
vn 0.596904 0.070193 0.799236
vn 0.596904 0.070193 0.799236
vn 0.596904 0.070193 0.799236
vn -0.927580 0.280526 -0.246782
vn -0.927580 0.280526 -0.246782
vn -0.927580 0.280526 -0.246782
vn -0.910809 0.288578 -0.295212
vn -0.910809 0.288578 -0.295212
vn -0.910809 0.288578 -0.295212
vn 0.763942 0.008249 -0.645232
vn 0.763943 0.008249 -0.645232
vn 0.763942 0.008249 -0.645232
vn 0.952589 -0.099134 -0.287657
vn 0.952589 -0.099134 -0.287657
vn 0.952589 -0.099134 -0.287657
vn 0.311533 0.924982 0.217614
vn 0.311533 0.924982 0.217614
vn 0.311533 0.924982 0.217614
vn 0.311531 0.924983 0.217610
vn 0.311531 0.924983 0.217610
vn 0.311531 0.924983 0.217610
vn 0.311530 0.924983 0.217613
vn 0.311530 0.924983 0.217613
vn 0.311530 0.924983 0.217613
vn 0.311519 0.924993 0.217585
vn 0.311519 0.924993 0.217585
vn 0.311519 0.924993 0.217585
vn -0.102717 0.027952 0.994318
vn -0.102717 0.027952 0.994318
vn -0.102717 0.027952 0.994318
vn -0.808485 0.035937 0.587418
vn -0.808485 0.035937 0.587418
vn -0.808485 0.035937 0.587418
vn -0.983129 0.117218 0.140419
vn -0.983129 0.117218 0.140419
vn -0.983129 0.117218 0.140419
vn -0.988244 0.129948 -0.080547
vn -0.988244 0.129948 -0.080547
vn -0.988244 0.129948 -0.080547
vn 0.653986 -0.060640 0.754073
vn 0.653986 -0.060640 0.754073
vn 0.653986 -0.060640 0.754073
vn 0.429591 -0.081637 0.899326
vn 0.429591 -0.081637 0.899326
vn 0.429591 -0.081637 0.899326
vn 0.977510 -0.043894 0.206270
vn 0.977510 -0.043894 0.206270
vn 0.977510 -0.043894 0.206270
vn 0.891742 -0.080105 0.445398
vn 0.891742 -0.080105 0.445398
vn 0.891742 -0.080105 0.445398
vn 0.968972 -0.026373 -0.245762
vn 0.968972 -0.026373 -0.245762
vn 0.968972 -0.026373 -0.245762
vn 0.996500 -0.075835 0.035172
vn 0.996500 -0.075835 0.035172
vn 0.996500 -0.075835 0.035172
vn 0.028874 0.062955 -0.997599
vn 0.028874 0.062955 -0.997599
vn 0.028874 0.062955 -0.997599
vn 0.736037 0.020645 -0.676626
vn 0.736037 0.020645 -0.676626
vn 0.736037 0.020645 -0.676626
vn -0.743443 0.117738 -0.658354
vn -0.743443 0.117738 -0.658354
vn -0.743443 0.117738 -0.658354
vn -0.637635 0.124945 -0.760139
vn -0.637635 0.124945 -0.760139
vn -0.637635 0.124945 -0.760139
vn -0.890933 0.116994 -0.438806
vn -0.890933 0.116994 -0.438806
vn -0.890933 0.116994 -0.438806
vn -0.781472 0.121048 -0.612086
vn -0.781472 0.121048 -0.612086
vn -0.781472 0.121048 -0.612086
vn -0.814255 0.049148 0.578423
vn -0.814255 0.049148 0.578423
vn -0.814255 0.049148 0.578423
vn -0.495812 0.060655 0.866309
vn -0.495812 0.060655 0.866309
vn -0.495812 0.060655 0.866309
vn -0.999796 -0.001698 -0.020107
vn -0.999796 -0.001698 -0.020107
vn -0.999796 -0.001698 -0.020107
vn -0.983770 0.006649 0.179309
vn -0.983770 0.006649 0.179309
vn -0.983770 0.006649 0.179309
vn -0.756655 -0.040725 -0.652544
vn -0.756655 -0.040725 -0.652544
vn -0.756655 -0.040725 -0.652544
vn -0.729110 -0.041285 -0.683150
vn -0.729110 -0.041285 -0.683150
vn -0.729110 -0.041285 -0.683150
vn -0.552465 -0.048564 -0.832120
vn -0.552465 -0.048564 -0.832120
vn -0.552465 -0.048564 -0.832120
vn -0.571335 -0.048794 -0.819265
vn -0.571335 -0.048794 -0.819265
vn -0.571335 -0.048794 -0.819265
vn 0.768326 -0.036147 -0.639037
vn 0.768326 -0.036147 -0.639037
vn 0.768326 -0.036147 -0.639037
vn 0.520895 -0.043159 -0.852529
vn 0.520895 -0.043159 -0.852529
vn 0.520895 -0.043159 -0.852529
vn 0.999945 0.009631 -0.004071
vn 0.999945 0.009631 -0.004071
vn 0.999945 0.009631 -0.004071
vn 0.999585 0.008430 -0.027542
vn 0.999585 0.008430 -0.027542
vn 0.999585 0.008430 -0.027542
vn 0.877462 0.053514 0.476651
vn 0.877462 0.053514 0.476651
vn 0.877462 0.053514 0.476651
vn 0.784595 0.059644 0.617133
vn 0.784595 0.059644 0.617133
vn 0.784595 0.059644 0.617133
vn 0.327866 0.086989 0.940711
vn 0.327866 0.086989 0.940711
vn 0.327866 0.086989 0.940711
vn 0.541366 0.086397 0.836336
vn 0.541366 0.086397 0.836336
vn 0.541366 0.086397 0.836336
vn 0.641715 0.079288 -0.762834
vn 0.641715 0.079288 -0.762834
vn 0.641715 0.079288 -0.762834
vn 0.942852 0.012676 -0.332969
vn 0.942852 0.012676 -0.332969
vn 0.942852 0.012676 -0.332969
vn 0.999263 0.038316 0.002445
vn 0.999263 0.038316 0.002445
vn 0.999263 0.038316 0.002445
vn 0.954009 -0.003044 0.299764
vn 0.954008 -0.003044 0.299764
vn 0.954009 -0.003044 0.299764
vn 0.803891 0.001961 0.594773
vn 0.803891 0.001961 0.594773
vn 0.803891 0.001961 0.594773
vn 0.634367 -0.030045 0.772448
vn 0.634367 -0.030045 0.772448
vn 0.634367 -0.030045 0.772448
vn 0.539113 -0.015481 0.842091
vn 0.539113 -0.015481 0.842091
vn 0.539113 -0.015481 0.842091
vn 0.187406 0.002693 0.982279
vn 0.187406 0.002693 0.982279
vn 0.187406 0.002693 0.982279
vn -0.580638 -0.019668 0.813924
vn -0.580638 -0.019668 0.813924
vn -0.580638 -0.019668 0.813925
vn -0.909820 0.003799 0.414986
vn -0.909820 0.003799 0.414986
vn -0.909820 0.003799 0.414986
vn -0.985318 -0.001708 0.170719
vn -0.985318 -0.001708 0.170719
vn -0.985318 -0.001708 0.170718
vn -0.999882 0.003611 0.014945
vn -0.999882 0.003611 0.014945
vn -0.999882 0.003611 0.014945
vn -0.735638 -0.011500 -0.677277
vn -0.735638 -0.011500 -0.677277
vn -0.735638 -0.011500 -0.677277
vn -0.441073 0.011608 -0.897396
vn -0.441073 0.011608 -0.897396
vn -0.441073 0.011608 -0.897396
vn -0.577910 0.047760 -0.814702
vn -0.577910 0.047760 -0.814702
vn -0.577910 0.047760 -0.814702
vn -0.236991 0.010195 -0.971458
vn -0.236991 0.010195 -0.971458
vn -0.236991 0.010195 -0.971458
s off
g polySurface78 polySurface74
usemtl initialShadingGroup
f 1/1/1 12/2/2 3/3/3
f 3/3/4 12/2/5 9/4/6
f 18/18/7 19/19/8 17/20/9
f 17/20/10 19/19/11 20/22/12
f 10/56/13 11/53/14 5/51/15
f 5/51/16 11/53/17 7/49/18
f 2/27/19 15/28/20 4/29/21
f 4/29/22 15/28/23 16/30/24
f 1/44/25 3/45/26 14/46/27
f 14/46/28 3/45/29 13/47/30
f 18/18/31 21/21/32 19/19/33
f 19/19/34 21/21/35 22/23/36
f 11/64/37 10/65/38 8/66/39
f 8/66/40 10/65/41 6/67/42
f 12/2/43 2/5/44 9/4/45
f 9/4/46 2/5/47 4/7/48
f 14/46/49 13/47/50 7/49/51
f 7/49/52 13/47/53 5/51/54
f 15/28/55 8/31/56 16/30/57
f 16/30/58 8/31/59 6/33/60
f 22/23/61 23/25/62 19/19/63
f 19/19/64 23/25/65 24/26/66
f 20/22/67 19/19/68 25/24/69
f 25/24/70 19/19/71 24/26/72
f 3/3/73 9/4/74 27/6/75
f 27/6/76 9/4/77 26/8/78
f 3/45/79 27/48/80 13/47/81
f 13/47/82 27/48/83 28/50/84
f 9/4/85 4/7/86 26/8/87
f 26/8/88 4/7/89 33/10/90
f 4/29/91 16/30/92 33/32/93
f 33/32/94 16/30/95 32/34/96
f 16/30/97 6/33/98 32/34/99
f 32/34/100 6/33/101 31/36/102
f 10/65/103 30/68/104 6/67/105
f 6/33/106 30/37/107 31/36/108
f 5/51/109 29/55/110 10/56/111
f 10/56/112 29/55/113 30/61/114
f 13/47/115 28/50/116 5/51/117
f 5/51/118 28/50/119 29/55/120
f 26/8/121 38/9/122 27/6/123
f 27/6/124 38/9/125 39/11/126
f 27/48/127 39/52/128 28/50/129
f 28/50/130 39/52/131 40/54/132
f 28/50/133 40/54/134 29/55/135
f 29/55/136 40/54/137 41/60/138
f 29/55/139 41/60/140 30/61/141
f 30/61/142 41/60/143 34/62/144
f 31/36/145 30/37/146 35/39/147
f 35/39/148 30/37/149 34/40/150
f 32/34/151 31/36/152 36/38/153
f 36/38/154 31/36/155 35/39/156
f 33/32/157 32/34/158 37/35/159
f 37/12/160 32/16/161 36/15/162
f 26/8/163 33/10/164 38/9/165
f 38/9/166 33/10/167 37/12/168
f 35/39/169 34/40/170 23/42/171
f 23/42/172 34/40/173 24/43/174
f 36/38/175 35/39/176 22/41/177
f 22/41/178 35/39/179 23/42/180
f 37/12/181 36/15/182 21/14/183
f 21/14/184 36/15/185 22/17/186
f 37/12/187 21/14/188 38/9/189
f 38/9/190 21/14/191 18/13/192
f 38/9/193 18/13/194 39/11/195
f 39/52/196 18/58/197 17/57/198
f 39/52/199 17/57/200 40/54/201
f 40/54/202 17/57/203 20/59/204
f 40/54/205 20/59/206 41/60/207
f 41/69/208 20/70/209 25/71/210
f 34/62/211 41/60/212 24/63/213
f 24/72/214 41/69/215 25/71/216
